<svg id="Calque_1" data-name="Calque 1" xmlns="http://www.w3.org/2000/svg" viewBox="0 0 98.83 90.08"><defs><style>.cls-1{fill:#fff;}</style></defs><title>arow</title><path class="cls-1" d="M65.74,94.35a4.25,4.25,0,0,1-3.44-6.76L90.13,49.31,62.3,11a4.26,4.26,0,1,1,6.89-5L98.85,46.81a4.25,4.25,0,0,1,0,5L69.19,92.6a4.23,4.23,0,0,1-3.45,1.75Z" transform="translate(-0.84 -4.27)"/><path class="cls-1" d="M95.41,53.58H5.11a4.27,4.27,0,1,1,0-8.53h90.3a4.27,4.27,0,0,1,0,8.53Z" transform="translate(-0.84 -4.27)"/></svg>