<svg xmlns="http://www.w3.org/2000/svg" width="30.006" height="22.548" viewBox="0 0 30.006 22.548"><defs><style>.a{fill:#ff8f71;}</style></defs><g transform="translate(3.468 8.256)"><path class="a" d="M24.928,21.462H17.545a1.157,1.157,0,0,1-1.153-1.153V13.041h-3.7v7.267a1.157,1.157,0,0,1-1.153,1.153H4.153A1.157,1.157,0,0,1,3,20.308V8.323a1.153,1.153,0,1,1,2.307,0V19.155h5.075V11.888a1.157,1.157,0,0,1,1.153-1.153h6.01A1.157,1.157,0,0,1,18.7,11.888v7.267h5.075V8.323a1.153,1.153,0,1,1,2.307,0V20.308a1.157,1.157,0,0,1-1.153,1.153Z" transform="translate(-3 -7.17)"/></g><path class="a" d="M28.872,12.225a1.131,1.131,0,0,1-.669-.219L15.008,2.57,1.824,12.017a1.162,1.162,0,0,1-1.615-.265,1.146,1.146,0,0,1,.265-1.6L14.327.229a1.143,1.143,0,0,1,1.338,0l13.853,9.92a1.148,1.148,0,0,1,.265,1.6,1.067,1.067,0,0,1-.911.473Z" transform="translate(0.007 -0.012)"/></svg>