<svg xmlns="http://www.w3.org/2000/svg" width="24.364" height="24.364" viewBox="0 0 24.364 24.364"><defs><style>.a{fill:#323846;fill-rule:evenodd;}</style></defs><path class="a" d="M12.182,2.166a37.352,37.352,0,0,1,4.873.135,6.278,6.278,0,0,1,2.3.406,4.754,4.754,0,0,1,2.3,2.3,6.278,6.278,0,0,1,.406,2.3c0,1.218.135,1.624.135,4.873a37.352,37.352,0,0,1-.135,4.873,6.278,6.278,0,0,1-.406,2.3,4.754,4.754,0,0,1-2.3,2.3,6.278,6.278,0,0,1-2.3.406c-1.218,0-1.624.135-4.873.135a37.352,37.352,0,0,1-4.873-.135,6.278,6.278,0,0,1-2.3-.406,4.754,4.754,0,0,1-2.3-2.3,6.278,6.278,0,0,1-.406-2.3c0-1.218-.135-1.624-.135-4.873A37.352,37.352,0,0,1,2.3,7.309a6.278,6.278,0,0,1,.406-2.3,4.861,4.861,0,0,1,.947-1.354,2.288,2.288,0,0,1,1.354-.947,6.278,6.278,0,0,1,2.3-.406,37.352,37.352,0,0,1,4.873-.135m0-2.166A39.993,39.993,0,0,0,7.174.135,8.356,8.356,0,0,0,4.2.677,5.3,5.3,0,0,0,2.03,2.03,5.3,5.3,0,0,0,.677,4.2,6.167,6.167,0,0,0,.135,7.174,39.993,39.993,0,0,0,0,12.182,39.993,39.993,0,0,0,.135,17.19a8.356,8.356,0,0,0,.541,2.978A5.3,5.3,0,0,0,2.03,22.333,5.3,5.3,0,0,0,4.2,23.687a8.356,8.356,0,0,0,2.978.541,39.993,39.993,0,0,0,5.008.135,39.993,39.993,0,0,0,5.008-.135,8.356,8.356,0,0,0,2.978-.541,5.679,5.679,0,0,0,3.519-3.519,8.356,8.356,0,0,0,.541-2.978c0-1.354.135-1.76.135-5.008a39.993,39.993,0,0,0-.135-5.008A8.356,8.356,0,0,0,23.687,4.2,5.3,5.3,0,0,0,22.333,2.03,5.3,5.3,0,0,0,20.168.677,8.356,8.356,0,0,0,17.19.135,39.993,39.993,0,0,0,12.182,0m0,5.956a6.126,6.126,0,0,0-6.226,6.226,6.226,6.226,0,1,0,6.226-6.226m0,10.287a3.988,3.988,0,0,1-4.061-4.061,3.988,3.988,0,0,1,4.061-4.061,3.988,3.988,0,0,1,4.061,4.061,3.988,3.988,0,0,1-4.061,4.061M18.679,4.2a1.489,1.489,0,1,0,1.489,1.489A1.5,1.5,0,0,0,18.679,4.2"/></svg>